# xmcd
#
# Track frame offsets: 
#        150
#        24602
#        44352
#        75107
#        100092
#        124182
#        153092
#        181952
#        205415
#        227097
#        249572
#
# Disc length: 3859 seconds
#
# Revision: 0
# Processed by: cddbd v1.4PL0 Copyright (c) Steve Scherf et al.
# Submitted via: ExactAudioCopy v0.90b4
#
DISCID=800f110b
DTITLE=Max Allen and the Jam Band - Mr. Big Man
DYEAR=2002
DGENRE=Blues
TTITLE0=Mr. Big Man
TTITLE1=All the Rest
TTITLE2=Catfish Blues
TTITLE3=Love it Leave it
TTITLE4=Summertime
TTITLE5=What?
TTITLE6=You with Me
TTITLE7=Dead Man's Blues
TTITLE8=Dreams Take Flight
TTITLE9=I'm Always Late
TTITLE10=You're Gone
EXTD=
EXTT0=
EXTT1=
EXTT2=
EXTT3=
EXTT4=
EXTT5=
EXTT6=
EXTT7=
EXTT8=
EXTT9=
EXTT10=
PLAYORDER=
